# xmcd
#
# Track frame offsets: 
#        150
#        18787
#        36735
#        55106
#        84250
#        107302
#        130319
#        150912
#        173191
#        197425
#
# Disc length: 2960 seconds
#
# Revision: 0
# Processed by: cddbd v1.5.2PL0 Copyright (c) Steve Scherf et al.
# Submitted via: ExactAudioCopy v0.95a5
#
DISCID=6d0b8e0a
DTITLE=[DTS-CD] - 往事如昔
DYEAR=1900
DGENRE=A Cappella
TTITLE0=01 往事如昔
TTITLE1=02 干杯朋友
TTITLE2=03 滚滚红尘
TTITLE3=04 城里的月光
TTITLE4=05 橄榄树
TTITLE5=06 驿动的心
TTITLE6=07 爱的代价
TTITLE7=08 冬季到台北来看雨
TTITLE8=09 我可以抱你吗
TTITLE9=10 牵手
EXTD=
EXTT0=
EXTT1=
EXTT2=
EXTT3=
EXTT4=
EXTT5=
EXTT6=
EXTT7=
EXTT8=
EXTT9=
PLAYORDER=
